<?xml version="1.0" standalone="no"?>
<!DOCTYPE svg PUBLIC "-//W3C//DTD SVG 20010904//EN"
 "http://www.w3.org/TR/2001/REC-SVG-20010904/DTD/svg10.dtd">
<svg version="1.0" xmlns="http://www.w3.org/2000/svg"
 width="32.000000pt" height="32.000000pt" viewBox="0 0 32.000000 32.000000"
 preserveAspectRatio="xMidYMid meet">

<g transform="translate(0.000000,32.000000) scale(0.100000,-0.100000)"
fill="#000000" stroke="none">
<path d="M25 295 c-24 -23 -25 -31 -25 -135 0 -104 1 -112 25 -135 23 -24 31
-25 135 -25 104 0 112 1 135 25 24 23 25 31 25 135 0 104 -1 112 -25 135 -23
24 -31 25 -135 25 -104 0 -112 -1 -135 -25z m180 -49 c34 -14 35 -17 35 -66 0
-46 -4 -56 -34 -86 -19 -19 -39 -34 -46 -34 -7 0 -27 15 -46 34 -30 30 -34 40
-34 85 0 49 2 53 33 66 41 18 50 18 92 1z"/>
<path d="M128 228 c-24 -8 -28 -15 -28 -49 0 -29 7 -47 30 -71 l30 -33 30 33
c23 24 30 42 30 71 0 35 -3 40 -31 50 -18 6 -32 11 -33 10 -1 0 -13 -5 -28
-11z"/>
</g>
</svg>
